<svg id="Layer_2" data-name="Layer 2" xmlns="http://www.w3.org/2000/svg" viewBox="0 0 226.78 226.77"><defs><style>.cls-1{fill:#d1b036;}.cls-2{fill:#fff;}.cls-3{fill:#6aaa64;}</style></defs><rect class="cls-1" x="83.55" y="83.77" width="59.67" height="59.23"/><rect class="cls-2" x="11.94" y="83.77" width="59.67" height="59.23"/><rect class="cls-3" x="155.17" y="83.77" width="59.67" height="59.23"/><rect class="cls-3" x="11.94" y="154.94" width="202.9" height="59.23"/><rect class="cls-2" x="11.94" y="12.6" width="202.9" height="59.23"/><path d="M214.84,12.6V0H11.93V12.6H0V214.17H11.93v12.6H214.84v-12.6h11.94V12.6ZM155.16,25.2H167.1V12.6h35.8V25.2h11.94v34H202.9v12.6H167.1V59.23H155.16Zm59.68,105.2H202.9V143H167.1V130.41H155.16v-34H167.1V83.77h35.8v12.6h11.94Zm-71.64,0H131.26V143H95.46V130.41H83.54v-34H95.46V83.77h35.8v12.6h12v34ZM59.67,143H23.88V130.41H11.93v-34h12V83.77H59.67v12.6H71.6v34H59.67ZM83.54,25.2H95.46V12.6h35.8V25.2h12v34h-12v12.6H95.46V59.23H83.54Zm-71.61,0h12V12.6H59.67V25.2H71.6v34H59.67v12.6H23.88V59.23H11.93Zm12,189v-12.6H11.93v-34h12v-12.6H59.67v12.6H71.6v34h-12v12.59Zm107.38,0H95.49V201.58H83.54v-34H95.46v-12.6h35.8v12.6h12v34h-12Zm71.64-12.6v12.6H167.1V201.58H155.16v-34H167.1v-12.6h35.8v12.6h11.94v34Z" transform="translate(0.01 0)"/></svg>