<?xml version="1.0" encoding="utf-8"?>
<!-- Generator: Adobe Illustrator 22.0.0, SVG Export Plug-In . SVG Version: 6.00 Build 0)  -->
<svg version="1.1" id="Layer_2" xmlns="http://www.w3.org/2000/svg" xmlns:xlink="http://www.w3.org/1999/xlink" x="0px" y="0px"
	 viewBox="0 0 226.8 226.8" style="enable-background:new 0 0 226.8 226.8;" xml:space="preserve">
<style type="text/css">
	.st0{fill:#FFFFFF;}
</style>
<polygon class="st0" points="218.7,89.1 218.7,81 218.7,72.9 210.6,72.9 210.6,64.8 210.6,56.7 202.5,56.7 202.5,48.6 202.5,40.5 
	194.4,40.5 194.4,32.4 186.3,32.4 186.3,24.3 178.2,24.3 178.2,16.2 170.1,16.2 170.1,8.1 162,8.1 153.9,8.1 153.9,0 145.8,0 
	137.7,0 129.6,0 121.5,0 113.4,0 105.3,0 97.2,0 89.1,0 81,0 81,8.1 72.9,8.1 64.8,8.1 56.7,8.1 56.7,16.2 48.6,16.2 48.6,24.3 
	40.5,24.3 40.5,32.4 32.4,32.4 32.4,40.5 24.3,40.5 24.3,48.6 24.3,56.7 16.2,56.7 16.2,64.8 16.2,72.9 8.1,72.9 8.1,81 8.1,89.1 
	0,89.1 0,97.2 0,105.3 0,113.4 0,121.5 0,129.6 0,137.7 0,145.8 8.1,145.8 8.1,153.9 8.1,162 16.2,162 16.2,170.1 16.2,178.2 
	24.3,178.2 24.3,186.3 32.4,186.3 32.4,194.4 40.5,194.4 40.5,202.5 48.6,202.5 48.6,210.6 56.7,210.6 56.7,218.7 64.8,218.7 
	72.9,218.7 72.9,226.8 81,226.8 89.1,226.8 89.1,218.7 89.1,210.6 89.1,202.5 89.1,194.4 81,194.4 72.9,194.4 64.8,194.4 
	56.7,194.4 56.7,186.3 48.6,186.3 48.6,178.2 40.5,178.2 40.5,170.1 32.4,170.1 32.4,162 40.5,162 48.6,162 48.6,170.1 56.7,170.1 
	56.7,178.2 64.8,178.2 64.8,186.3 72.9,186.3 81,186.3 81,178.2 89.1,178.2 89.1,170.1 97.2,170.1 97.2,162 89.1,162 81,162 
	72.9,162 64.8,162 64.8,153.9 56.7,153.9 56.7,145.8 48.6,145.8 48.6,137.7 40.5,137.7 40.5,129.6 40.5,121.5 40.5,113.4 
	40.5,105.3 40.5,97.2 40.5,89.1 48.6,89.1 48.6,81 56.7,81 56.7,72.9 48.6,72.9 48.6,64.8 48.6,56.7 48.6,48.6 56.7,48.6 64.8,48.6 
	72.9,48.6 72.9,56.7 81,56.7 81,64.8 89.1,64.8 89.1,56.7 97.2,56.7 105.3,56.7 113.4,56.7 121.5,56.7 129.6,56.7 137.7,56.7 
	137.7,64.8 145.8,64.8 145.8,56.7 153.9,56.7 153.9,48.6 162,48.6 170.1,48.6 178.2,48.6 178.2,56.7 178.2,64.8 178.2,72.9 
	170.1,72.9 170.1,81 178.2,81 178.2,89.1 186.3,89.1 186.3,97.2 186.3,105.3 186.3,113.4 186.3,121.5 186.3,129.6 186.3,137.7 
	178.2,137.7 178.2,145.8 170.1,145.8 170.1,153.9 162,153.9 162,162 153.9,162 145.8,162 137.7,162 129.6,162 129.6,170.1 
	137.7,170.1 137.7,178.2 145.8,178.2 145.8,186.3 145.8,194.4 145.8,202.5 145.8,210.6 145.8,218.7 145.8,226.8 153.9,226.8 
	153.9,218.7 162,218.7 170.1,218.7 170.1,210.6 178.2,210.6 178.2,202.5 186.3,202.5 186.3,194.4 194.4,194.4 194.4,186.3 
	202.5,186.3 202.5,178.2 210.6,178.2 210.6,170.1 210.6,162 218.7,162 218.7,153.9 218.7,145.8 226.8,145.8 226.8,137.7 
	226.8,129.6 226.8,121.5 226.8,113.4 226.8,105.3 226.8,97.2 226.8,89.1 "/>
</svg>
